<svg width="213" height="208" viewBox="0 0 213 208" fill="none" xmlns="http://www.w3.org/2000/svg">
<path d="M115.333 202.787L97.1525 203.163L97.2096 202.21L86.2598 203.422V207.791L97.2974 207.992L97.2156 207.46L115.333 207.078V202.787Z" fill="url(#paint0_linear_104_2761)"/>
<path d="M124.226 126.527V202.608L100.626 203.102V126.834L124.226 126.527Z" fill="url(#paint1_linear_104_2761)"/>
<path d="M135.513 207.183L97.2051 208V202.091L135.513 201.296V207.183Z" fill="url(#paint2_linear_104_2761)"/>
<path style="mix-blend-mode:multiply" opacity="0.4" d="M124.229 149.847V165.191C121.493 166.295 118.178 166.97 114.5 167.033C108.743 167.13 103.707 165.696 100.629 163.428V152.379C103.707 149.994 108.743 148.406 114.5 148.318C118.175 148.26 121.49 148.828 124.229 149.847Z" fill="url(#paint3_linear_104_2761)"/>
<path d="M204.457 151.479L180.345 20.1831C179.743 16.9089 177.184 14.3113 174.698 14.1045L5.19033 0.0197589C1.96629 -0.249352 -0.358557 2.291 0.0456795 6.02117L16.4251 156.817C16.8846 161.053 20.0416 164.499 23.446 164.383L200.916 158.355C203.499 158.267 205.129 155.136 204.457 151.479Z" fill="url(#paint4_linear_104_2761)"/>
<path d="M182.932 14.0672L12.5504 0.0186532C9.30958 -0.249211 6.97289 2.28491 7.38009 6.00636L23.8453 156.422C24.3077 160.645 27.4805 164.084 30.9017 163.969L209.288 157.978C211.881 157.891 213.528 154.767 212.848 151.125L188.611 20.1322C188.003 16.8642 185.429 14.2728 182.932 14.0672Z" fill="url(#paint5_linear_104_2761)"/>
<path d="M34.5239 10.7145L36.9799 31.0672C37.1426 32.409 36.4041 33.4468 35.3275 33.382L18.6118 32.3853C17.5076 32.3193 16.4506 31.1606 16.2978 29.7989L13.9848 9.15961C13.8349 7.82278 14.6394 6.80988 15.7338 6.8946L32.2868 8.18159C33.3546 8.26382 34.3652 9.39882 34.5239 10.7145Z" fill="url(#paint6_linear_104_2761)"/>
<path d="M38.0088 39.5879L40.523 60.4427C40.6886 61.8132 39.9452 62.9008 38.8577 62.8585L21.9764 62.2032C20.8613 62.1595 19.7916 60.9909 19.6348 59.5943L17.2685 38.438C17.1157 37.0675 17.9262 36.011 19.0314 36.0708L35.748 37.0276C36.8237 37.0924 37.8461 38.2374 38.0088 39.5879Z" fill="url(#paint7_linear_104_2761)"/>
<path d="M41.5789 69.1713L44.1592 90.5456C44.3287 91.9559 43.5804 93.086 42.4831 93.0673L25.4332 92.7732C24.3062 92.7533 23.2237 91.5747 23.0669 90.1432L20.6306 68.4511C20.4739 67.0458 21.2902 65.9419 22.4053 65.983L39.2876 66.5935C40.3781 66.6334 41.4104 67.7858 41.5789 69.1713Z" fill="url(#paint8_linear_104_2761)"/>
<path d="M45.2382 99.4934L47.8835 121.41C48.058 122.855 47.3037 124.034 46.1946 124.04L28.9721 124.126C27.8334 124.132 26.738 122.943 26.5733 121.475L24.0799 99.2256C23.9182 97.7853 24.7414 96.6329 25.8694 96.6491L42.9262 96.8983C44.0206 96.912 45.0666 98.0744 45.2382 99.4934Z" fill="url(#paint9_linear_104_2761)"/>
<path d="M48.991 130.585L51.7033 153.062C51.8828 154.545 51.1226 155.775 50.0036 155.802L32.6047 156.288C31.455 156.321 30.3449 155.122 30.1763 153.615L27.6178 130.788C27.4521 129.31 28.2823 128.108 29.422 128.098L46.6464 127.962C47.7566 127.952 48.8155 129.129 48.991 130.585Z" fill="url(#paint10_linear_104_2761)"/>
<path d="M57.9144 12.5036L60.5271 32.5262C60.6987 33.8468 60.0421 34.8684 59.0019 34.8061L42.8472 33.8406C41.7814 33.777 40.7412 32.6383 40.5796 31.299L38.0979 10.9986C37.9372 9.68291 38.728 8.68496 39.7859 8.76719L55.7581 10.0131C56.7904 10.0916 57.7448 11.2129 57.9144 12.5036Z" fill="url(#paint11_linear_104_2761)"/>
<path d="M61.6221 40.9036L64.2979 61.4108C64.4744 62.7638 63.8138 63.829 62.7638 63.7892L46.4563 63.155C45.3797 63.1139 44.3277 61.9652 44.16 60.5922L41.6163 39.7935C41.4517 38.4467 42.2493 37.4051 43.3171 37.4662L59.4352 38.3906C60.4764 38.4504 61.4466 39.5742 61.6221 40.9036Z" fill="url(#paint12_linear_104_2761)"/>
<path d="M65.4147 69.9924L68.1566 91.0029C68.3371 92.3883 67.6725 93.4947 66.6127 93.4822L50.1474 93.1982C49.0629 93.1795 47.9951 92.0208 47.8236 90.6142L45.2187 69.2972C45.0501 67.9167 45.8536 66.8316 46.9313 66.8714L63.1993 67.4595C64.2563 67.4981 65.2373 68.6306 65.4147 69.9924Z" fill="url(#paint13_linear_104_2761)"/>
<path d="M69.3031 99.795L72.1131 121.328C72.2984 122.748 71.63 123.908 70.5602 123.913L53.9372 123.996C52.8389 123.996 51.7623 122.834 51.5858 121.392L48.9158 99.5371C48.7433 98.1218 49.5518 96.9906 50.6403 97.0068L67.068 97.2435C68.1289 97.2597 69.1217 98.4009 69.3031 99.795Z" fill="url(#paint14_linear_104_2761)"/>
<path d="M73.2895 130.34L76.1694 152.414C76.3587 153.87 75.6873 155.08 74.6067 155.111L57.822 155.579C56.7138 155.611 55.6234 154.433 55.443 152.953L52.704 130.541C52.5265 129.089 53.3419 127.911 54.4412 127.902L71.0268 127.769C72.0985 127.76 73.1022 128.911 73.2895 130.34Z" fill="url(#paint15_linear_104_2761)"/>
<path d="M80.599 14.2329C80.4205 12.9547 79.5145 11.857 78.5206 11.7798L63.0818 10.5775C62.0584 10.4978 61.3771 11.4833 61.5476 12.7777L64.185 32.7455C64.3595 34.0649 65.3534 35.1849 66.3857 35.2472L81.9113 36.1791C82.9189 36.2389 83.5401 35.2323 83.3577 33.9366L80.599 14.2329Z" fill="url(#paint16_linear_104_2761)"/>
<path d="M84.509 42.1756L87.3328 62.3476C87.5191 63.6783 86.9029 64.7273 85.8874 64.6874L70.1823 64.0769C69.1422 64.0371 68.1641 62.9083 67.9866 61.559L65.2861 41.1041C65.1116 39.7785 65.8225 38.7544 66.8548 38.8129L82.4021 39.7062C83.4107 39.7635 84.3266 40.8649 84.509 42.1756Z" fill="url(#paint17_linear_104_2761)"/>
<path d="M88.5139 70.7859L91.4047 91.4476C91.4204 91.5584 91.4865 91.6693 91.4895 91.7752C91.5368 92.9825 90.9206 93.9032 89.98 93.887L74.1172 93.6142C73.0671 93.5955 72.0644 92.4592 71.882 91.0763L69.1145 70.1181C68.9351 68.7613 69.6508 67.6923 70.692 67.7297L86.3813 68.2991C87.3988 68.3352 88.3266 69.4478 88.5139 70.7859Z" fill="url(#paint18_linear_104_2761)"/>
<path d="M92.6152 100.089L95.573 121.252C95.7702 122.647 95.1461 123.787 94.1128 123.793L78.1179 123.875C77.058 123.875 76.0582 122.736 75.8709 121.319L73.0403 99.8437C72.8569 98.4533 73.5766 97.3395 74.6276 97.3519L90.4599 97.5799C91.4853 97.5973 92.4229 98.7186 92.6152 100.089Z" fill="url(#paint19_linear_104_2761)"/>
<path d="M96.8203 130.107L99.855 151.793C100.052 153.223 99.4301 154.41 98.388 154.441L82.2441 154.897C81.1744 154.927 80.1628 153.775 79.9706 152.32L77.061 130.307C76.8727 128.881 77.5974 127.72 78.6593 127.712L94.6364 127.587C95.6717 127.578 96.6231 128.7 96.8203 130.107Z" fill="url(#paint20_linear_104_2761)"/>
<path d="M102.538 15.9036C102.351 14.6453 101.483 13.5663 100.516 13.4903L85.6609 12.3341C84.67 12.2569 84.11 13.2274 84.2904 14.502L87.0708 34.1533C87.2541 35.4502 88.1484 36.5516 89.1412 36.6114L104.104 37.5122C105.078 37.5707 105.61 36.5778 105.419 35.297L102.538 15.9036Z" fill="url(#paint21_linear_104_2761)"/>
<path d="M106.635 43.4077C106.437 42.1207 105.566 41.033 104.59 40.977L89.6113 40.1173C88.6126 40.06 88.0496 41.0717 88.231 42.3773L91.0814 62.4921C91.2687 63.8215 92.1728 64.929 93.1794 64.9689L108.271 65.557C109.257 65.5956 109.789 64.5603 109.592 63.2508L106.635 43.4077Z" fill="url(#paint22_linear_104_2761)"/>
<path d="M110.832 71.5571C110.635 70.2389 109.747 69.145 108.762 69.1089L93.653 68.5607C92.6453 68.5246 92.0804 69.5786 92.2726 70.9154L95.1881 91.5173C95.3803 92.8778 96.2943 93.9942 97.3098 94.0091L112.533 94.2695C113.524 94.2869 114.06 93.2092 113.86 91.8674L110.832 71.5571Z" fill="url(#paint23_linear_104_2761)"/>
<path d="M115.128 100.372L118.231 121.178C118.435 122.549 117.863 123.67 116.866 123.67L101.505 123.753C100.481 123.753 99.5928 122.632 99.3956 121.244L96.4092 100.141C96.212 98.771 96.8164 97.6771 97.8319 97.6908L113.076 97.9101C114.066 97.9263 114.927 99.0239 115.128 100.372Z" fill="url(#paint24_linear_104_2761)"/>
<path d="M119.528 129.882L122.706 151.186C122.915 152.592 122.341 153.76 121.335 153.788L105.838 154.24C104.805 154.269 103.907 153.14 103.705 151.712L100.648 130.084C100.451 128.683 101.055 127.54 102.079 127.531L117.46 127.406C118.452 127.395 119.322 128.501 119.528 129.882Z" fill="url(#paint25_linear_104_2761)"/>
<path d="M124.051 17.5232C123.854 16.2774 122.877 15.2209 121.94 15.1486L107.386 14.0273C106.427 13.9525 105.721 14.9081 105.907 16.164L108.818 35.5051C109.016 36.7821 110.001 37.866 110.968 37.9233L125.633 38.7954C126.575 38.8515 127.265 37.876 127.066 36.6151L124.051 17.5232Z" fill="url(#paint26_linear_104_2761)"/>
<path d="M128.332 44.6026C128.134 43.3355 127.143 42.2641 126.198 42.2093L111.523 41.372C110.557 41.3172 109.847 42.3114 110.039 43.5959L113.018 63.3893C113.215 64.6962 114.218 65.7888 115.187 65.8262L129.976 66.3993C130.927 66.4367 131.621 65.4225 131.417 64.1331L128.332 44.6026Z" fill="url(#paint27_linear_104_2761)"/>
<path d="M132.708 72.3071C132.511 71.0151 131.506 69.9299 130.554 69.8938L115.757 69.3593C114.783 69.3232 114.068 70.356 114.265 71.6717L117.315 91.9335C117.512 93.2715 118.53 94.3729 119.511 94.3903L134.422 94.6482C135.381 94.6644 136.078 93.6092 135.87 92.2898L132.708 72.3071Z" fill="url(#paint28_linear_104_2761)"/>
<path d="M137.192 100.656L140.426 121.118C140.639 122.468 139.966 123.564 139 123.569L123.966 123.641C122.98 123.641 121.92 122.536 121.714 121.168L118.591 100.418C118.388 99.0736 119.075 97.9972 120.057 98.0121L134.923 98.2277C135.792 98.2401 136.726 99.1322 137.034 100.291C137.068 100.407 137.172 100.533 137.192 100.656Z" fill="url(#paint29_linear_104_2761)"/>
<path d="M141.779 129.678L145.091 150.627C145.308 152.009 144.632 153.149 143.659 153.176L128.497 153.596C127.499 153.624 126.427 152.505 126.22 151.104L123.021 129.851C122.814 128.48 123.504 127.359 124.494 127.347L139.55 127.232C140.516 127.223 141.565 128.326 141.779 129.678Z" fill="url(#paint30_linear_104_2761)"/>
<path d="M144.362 19.088C144.159 17.8671 143.338 16.823 142.431 16.752L128.42 15.6618C127.492 15.5896 126.903 16.534 127.101 17.7686L130.135 36.8119C130.332 38.069 131.29 39.1343 132.224 39.1903L146.276 40.035C147.189 40.0898 147.699 39.1268 147.493 37.8859L144.362 19.088Z" fill="url(#paint31_linear_104_2761)"/>
<path d="M148.802 45.7513C148.594 44.5054 147.765 43.4514 146.851 43.3991L132.729 42.5893C131.793 42.5357 131.203 43.5162 131.405 44.7808L134.509 64.2626C134.714 65.5484 135.678 66.6223 136.62 66.6597L150.783 67.2104C151.703 67.2465 152.214 66.2448 152.003 64.9753L148.802 45.7513Z" fill="url(#paint32_linear_104_2761)"/>
<path d="M153.343 73.0198C153.13 71.7427 152.291 70.685 151.372 70.6526L137.138 70.1368C136.196 70.1032 135.602 71.1235 135.808 72.4168L138.985 92.3509C139.195 93.6665 140.168 94.7492 141.12 94.7654L155.395 95.0146C156.322 95.0308 156.835 93.988 156.619 92.6897L153.343 73.0198Z" fill="url(#paint33_linear_104_2761)"/>
<path d="M157.987 100.916L161.339 121.042C161.56 122.369 161.065 123.453 160.131 123.458L145.681 123.532C144.725 123.532 143.779 122.449 143.565 121.103L140.312 100.695C140.265 100.363 140.278 100.023 140.347 99.698C140.406 99.3023 140.575 98.9463 140.823 98.6948C141.072 98.4433 141.384 98.3129 141.702 98.3275L155.986 98.5331C156.915 98.5493 157.77 99.6083 157.987 100.916Z" fill="url(#paint34_linear_104_2761)"/>
<path d="M162.74 129.456L166.17 150.054C166.396 151.412 165.9 152.546 164.958 152.567L150.393 152.977C149.429 153.004 148.473 151.908 148.253 150.53L144.925 129.636C144.709 128.282 145.346 127.181 146.305 127.173L160.712 127.056C161.645 127.049 162.517 128.12 162.74 129.456Z" fill="url(#paint35_linear_104_2761)"/>
<path d="M164.568 20.6069C164.358 19.4046 163.425 18.3755 162.547 18.307L149.028 17.2517C148.129 17.182 147.631 18.1114 147.836 19.3286L150.991 38.0841C151.199 39.3225 152.01 40.3691 152.916 40.4239L166.589 41.2387C167.476 41.2923 168.021 40.3429 167.807 39.1207L164.568 20.6069Z" fill="url(#paint36_linear_104_2761)"/>
<path d="M169.162 46.8713C168.947 45.6429 168.005 44.6051 167.12 44.5552L153.501 43.7716C152.594 43.7192 152.095 44.6873 152.304 45.9319L155.525 65.111C155.738 66.3781 156.558 67.4321 157.47 67.467L171.252 68.0027C172.139 68.0376 172.691 67.0521 172.474 65.8025L169.162 46.8713Z" fill="url(#paint37_linear_104_2761)"/>
<path d="M173.858 73.7226C173.638 72.4668 172.687 71.4215 171.795 71.3891L158.072 70.8907C157.159 70.8571 156.659 71.8625 156.873 73.1333L160.168 92.7522C160.385 94.0479 161.214 95.1082 162.133 95.1194L176.019 95.3586C176.918 95.3735 177.468 94.3494 177.244 93.0724L173.858 73.7226Z" fill="url(#paint38_linear_104_2761)"/>
<path d="M178.661 101.178L182.125 120.988C182.353 122.293 181.754 123.355 180.85 123.355L166.929 123.428C166.004 123.428 165.142 122.366 164.919 121.041L161.547 100.964C161.328 99.6631 161.803 98.6166 162.722 98.6303L176.624 98.8308C177.523 98.8445 178.436 99.8948 178.661 101.178Z" fill="url(#paint39_linear_104_2761)"/>
<path d="M183.573 129.264L187.118 149.526C187.351 150.861 186.75 151.964 185.836 151.99L171.809 152.39C170.876 152.416 170.005 151.341 169.777 149.985L166.326 129.438C166.102 128.106 166.578 127.019 167.509 127.011L181.518 126.9C182.421 126.893 183.344 127.952 183.573 129.264Z" fill="url(#paint40_linear_104_2761)"/>
<path d="M183.879 22.0782C183.662 20.8946 182.764 19.8805 181.907 19.8145L168.818 18.7903C167.945 18.7231 167.49 19.64 167.701 20.8398L170.954 39.3138C171.169 40.5335 171.958 41.5651 172.835 41.6174L186.072 42.411C186.929 42.4621 187.429 41.5264 187.209 40.3229L183.879 22.0782Z" fill="url(#paint41_linear_104_2761)"/>
<path d="M188.611 47.9527C188.39 46.7429 187.482 45.7226 186.624 45.6727L173.438 44.914C172.559 44.8641 172.103 45.8172 172.319 47.0432L175.647 65.9295C175.866 67.1754 176.664 68.2132 177.547 68.2481L190.879 68.7726C191.743 68.8063 192.244 67.8345 192.019 66.6035L188.611 47.9527Z" fill="url(#paint42_linear_104_2761)"/>
<path d="M193.442 74.3965C193.215 73.1594 192.298 72.1315 191.433 72.1004L178.16 71.6182C177.272 71.5858 176.818 72.5775 177.039 73.8309L180.441 93.1421C180.666 94.4166 181.471 95.4606 182.362 95.4768L195.789 95.7073C196.66 95.7223 197.161 94.7106 196.931 93.4548L193.442 74.3965Z" fill="url(#paint43_linear_104_2761)"/>
<path d="M198.389 101.426L201.955 120.918C202.19 122.202 201.638 123.248 200.762 123.253L187.302 123.325C186.406 123.325 185.577 122.28 185.347 120.976L181.866 101.22C181.813 100.924 181.701 100.635 181.73 100.373C181.812 99.5173 182.236 98.9118 182.92 98.9218L196.388 99.1161C197.258 99.1286 198.158 100.169 198.389 101.426Z" fill="url(#paint44_linear_104_2761)"/>
<path d="M203.445 129.066L207.093 149C207.333 150.314 206.779 151.4 205.898 151.424L192.34 151.812C191.438 151.838 190.6 150.78 190.368 149.445L186.807 129.234C186.576 127.923 187.016 126.853 187.913 126.846L201.454 126.737C202.325 126.734 203.209 127.774 203.445 129.066Z" fill="url(#paint45_linear_104_2761)"/>
<path style="mix-blend-mode:multiply" opacity="0.2" d="M27.6993 7.82278C30.0152 9.44243 32.4633 11.2128 34.8178 13.1502L36.9799 31.0709C37.1426 32.4128 36.4041 33.4506 35.3275 33.3858L18.6118 32.3891C17.5076 32.323 16.4506 31.1644 16.2978 29.8026L13.9848 9.15961C13.8349 7.82278 14.6385 6.80988 15.7329 6.8946L27.6993 7.82278Z" fill="url(#paint46_linear_104_2761)"/>
<path style="mix-blend-mode:multiply" opacity="0.2" d="M38.0088 39.5879L40.523 60.4427C40.6886 61.8132 39.9452 62.9008 38.8577 62.8585L21.9764 62.2032C20.8613 62.1595 19.7916 60.9909 19.6348 59.5943L17.2685 38.438C17.1157 37.0675 17.9262 36.011 19.0314 36.0708L35.748 37.0276C36.8237 37.0924 37.8461 38.2374 38.0088 39.5879Z" fill="url(#paint47_linear_104_2761)"/>
<path style="mix-blend-mode:multiply" opacity="0.2" d="M41.5789 69.1713L44.1592 90.5456C44.3287 91.9559 43.5804 93.086 42.4831 93.0673L25.4332 92.7732C24.3062 92.7533 23.2237 91.5747 23.0669 90.1432L20.6306 68.4511C20.4739 67.0458 21.2902 65.9419 22.4053 65.983L39.2876 66.5935C40.3781 66.6334 41.4104 67.7858 41.5789 69.1713Z" fill="url(#paint48_linear_104_2761)"/>
<path style="mix-blend-mode:multiply" opacity="0.2" d="M45.2382 99.4934L47.8835 121.41C48.058 122.855 47.3037 124.034 46.1946 124.04L28.9721 124.126C27.8334 124.132 26.738 122.943 26.5733 121.475L24.0799 99.2256C23.9182 97.7853 24.7414 96.6329 25.8694 96.6491L42.9262 96.8983C44.0206 96.912 45.0666 98.0744 45.2382 99.4934Z" fill="url(#paint49_linear_104_2761)"/>
<path style="mix-blend-mode:multiply" opacity="0.2" d="M48.991 130.585L51.7033 153.062C51.8828 154.545 51.1226 155.775 50.0036 155.802L32.6047 156.288C31.455 156.321 30.3449 155.122 30.1763 153.615L27.6178 130.788C27.4521 129.31 28.2823 128.108 29.422 128.098L46.6464 127.962C47.7566 127.952 48.8155 129.129 48.991 130.585Z" fill="url(#paint50_linear_104_2761)"/>
<path style="mix-blend-mode:multiply" opacity="0.2" d="M40.5777 31.2989L38.7744 16.5339C44.7374 21.5598 50.6235 27.545 56.3962 34.6516L42.8365 33.8405C41.7727 33.7769 40.7414 32.6419 40.5777 31.2989Z" fill="url(#paint51_linear_104_2761)"/>
<path style="mix-blend-mode:multiply" opacity="0.2" d="M59.3539 38.3844C60.1634 39.4484 60.8486 40.5373 61.7202 41.6474L64.2984 61.4108C64.4749 62.7638 63.8143 63.829 62.7643 63.7892L46.4568 63.155C45.3802 63.1139 44.3282 61.9652 44.1606 60.5922L41.6158 39.7935C41.4512 38.4467 42.2261 37.4051 43.2919 37.4662L59.3539 38.3844Z" fill="url(#paint52_linear_104_2761)"/>
<path style="mix-blend-mode:multiply" opacity="0.2" d="M65.4147 69.9924L68.1566 91.0029C68.3371 92.3883 67.6725 93.4947 66.6127 93.4822L50.1474 93.1982C49.0629 93.1795 47.9951 92.0208 47.8236 90.6142L45.2187 69.2972C45.0501 67.9167 45.8536 66.8316 46.9313 66.8714L63.1993 67.4595C64.2563 67.4981 65.2373 68.6306 65.4147 69.9924Z" fill="url(#paint53_linear_104_2761)"/>
<path style="mix-blend-mode:multiply" opacity="0.2" d="M69.3031 99.795L72.1131 121.328C72.2984 122.748 71.63 123.908 70.5602 123.913L53.9372 123.996C52.8389 123.996 51.7623 122.834 51.5858 121.392L48.9158 99.5371C48.7433 98.1218 49.5518 96.9906 50.6403 97.0068L67.068 97.2435C68.1289 97.2597 69.1217 98.4009 69.3031 99.795Z" fill="url(#paint54_linear_104_2761)"/>
<path style="mix-blend-mode:multiply" opacity="0.2" d="M73.2895 130.34L76.1694 152.414C76.3587 153.87 75.6873 155.08 74.6067 155.111L57.822 155.579C56.7138 155.611 55.6234 154.433 55.443 152.953L52.704 130.541C52.5265 129.089 53.3419 127.911 54.4412 127.902L71.0268 127.769C72.0985 127.76 73.1022 128.911 73.2895 130.34Z" fill="url(#paint55_linear_104_2761)"/>
<path style="mix-blend-mode:multiply" opacity="0.2" d="M67.9865 61.559L66.2188 48.1682C69.5372 53.2797 72.5864 58.661 75.3466 64.2775L70.199 64.0769C69.1608 64.0383 68.164 62.9082 67.9865 61.559Z" fill="url(#paint56_linear_104_2761)"/>
<path style="mix-blend-mode:multiply" opacity="0.2" d="M71.882 91.0738L69.1145 70.1181C68.9351 68.7613 69.6508 67.6923 70.692 67.7297L77.1223 67.9627C77.8453 69.5109 78.5562 71.089 79.2549 72.697C82.8812 81.108 87.0162 87.2926 91.5407 91.769C91.5881 92.9775 90.9492 93.897 90.0046 93.887L74.131 93.6129C73.08 93.5942 72.0644 92.4567 71.882 91.0738Z" fill="url(#paint57_linear_104_2761)"/>
<path style="mix-blend-mode:multiply" opacity="0.2" d="M92.6152 100.089L95.573 121.252C95.7702 122.647 95.1461 123.787 94.1128 123.793L78.1179 123.875C77.058 123.875 76.0582 122.736 75.8709 121.319L73.0403 99.8437C72.8569 98.4533 73.5766 97.3395 74.6276 97.3519L90.4599 97.5799C91.4853 97.5973 92.4229 98.7186 92.6152 100.089Z" fill="url(#paint58_linear_104_2761)"/>
<path style="mix-blend-mode:multiply" opacity="0.2" d="M96.8203 130.107L99.855 151.793C100.052 153.223 99.4301 154.41 98.388 154.441L82.2441 154.897C81.1744 154.927 80.1628 153.775 79.9706 152.32L77.061 130.307C76.8727 128.881 77.5974 127.72 78.6593 127.712L94.6364 127.587C95.6717 127.578 96.6231 128.7 96.8203 130.107Z" fill="url(#paint59_linear_104_2761)"/>
<path style="mix-blend-mode:multiply" opacity="0.2" d="M99.3193 97.7108C104.426 100.548 109.98 101.822 115.39 102.149L118.228 121.178C118.432 122.549 117.86 123.67 116.862 123.67L101.501 123.753C100.478 123.753 99.5895 122.632 99.3923 121.244L96.4088 100.141C96.2117 98.771 96.7815 97.6759 97.797 97.6908L99.3193 97.7108Z" fill="url(#paint60_linear_104_2761)"/>
<path style="mix-blend-mode:multiply" opacity="0.2" d="M119.528 129.882L122.706 151.186C122.915 152.592 122.341 153.76 121.335 153.788L105.838 154.24C104.805 154.269 103.907 153.14 103.705 151.712L100.648 130.084C100.451 128.683 101.055 127.54 102.079 127.531L117.46 127.406C118.452 127.395 119.322 128.501 119.528 129.882Z" fill="url(#paint61_linear_104_2761)"/>
<path style="mix-blend-mode:multiply" opacity="0.2" d="M136.994 100.293C137.027 100.411 137.172 100.543 137.191 100.661L140.425 121.123C140.638 122.473 139.964 123.569 138.999 123.574L123.965 123.646C122.979 123.646 121.919 122.541 121.713 121.173L118.865 102.241C125.032 102.233 130.91 101.34 136.994 100.293Z" fill="url(#paint62_linear_104_2761)"/>
<path style="mix-blend-mode:multiply" opacity="0.2" d="M141.779 129.678L145.091 150.627C145.308 152.009 144.632 153.149 143.659 153.176L128.497 153.596C127.499 153.624 126.427 152.505 126.22 151.104L123.021 129.851C122.814 128.48 123.504 127.359 124.494 127.347L139.55 127.232C140.516 127.223 141.565 128.326 141.779 129.678Z" fill="url(#paint63_linear_104_2761)"/>
<path style="mix-blend-mode:multiply" opacity="0.2" d="M157.987 100.916L161.339 121.042C161.56 122.369 161.065 123.453 160.131 123.458L145.681 123.532C144.725 123.532 143.779 122.449 143.565 121.103L140.312 100.695C140.265 100.363 140.278 100.023 140.347 99.6979C142.79 99.2569 145.251 98.8258 147.695 98.4197L155.986 98.5443C156.915 98.5492 157.77 99.6082 157.987 100.916Z" fill="url(#paint64_linear_104_2761)"/>
<path style="mix-blend-mode:multiply" opacity="0.2" d="M162.74 129.456L166.17 150.054C166.396 151.412 165.9 152.546 164.958 152.567L150.393 152.977C149.429 153.004 148.473 151.908 148.253 150.53L144.925 129.636C144.709 128.282 145.346 127.181 146.305 127.173L160.712 127.056C161.645 127.049 162.517 128.12 162.74 129.456Z" fill="url(#paint65_linear_104_2761)"/>
<path style="mix-blend-mode:multiply" opacity="0.2" d="M178.661 101.178L182.125 120.988C182.353 122.293 181.754 123.355 180.85 123.355L166.929 123.428C166.004 123.428 165.142 122.366 164.919 121.041L161.547 100.964C161.328 99.6631 161.803 98.6166 162.722 98.6303L176.624 98.8308C177.523 98.8445 178.436 99.8948 178.661 101.178Z" fill="url(#paint66_linear_104_2761)"/>
<path style="mix-blend-mode:multiply" opacity="0.2" d="M183.573 129.264L187.118 149.526C187.351 150.861 186.75 151.964 185.836 151.99L171.809 152.39C170.876 152.416 170.005 151.341 169.777 149.985L166.326 129.438C166.102 128.106 166.578 127.019 167.509 127.011L181.518 126.9C182.421 126.893 183.344 127.952 183.573 129.264Z" fill="url(#paint67_linear_104_2761)"/>
<path style="mix-blend-mode:multiply" opacity="0.2" d="M201.368 117.713L201.96 120.918C202.195 122.202 201.643 123.247 200.767 123.252L187.307 123.325C186.411 123.325 185.582 122.279 185.352 120.976L181.87 101.22C181.818 100.924 181.706 100.635 181.735 100.373C187.761 103.073 193.592 107.59 199.178 114.825C199.928 115.806 200.38 116.754 201.368 117.713Z" fill="url(#paint68_linear_104_2761)"/>
<path style="mix-blend-mode:multiply" opacity="0.2" d="M203.445 129.066L207.093 149C207.333 150.314 206.779 151.4 205.898 151.424L192.34 151.812C191.438 151.838 190.6 150.78 190.368 149.445L186.807 129.234C186.576 127.923 187.016 126.853 187.913 126.846L201.454 126.737C202.325 126.734 203.209 127.774 203.445 129.066Z" fill="url(#paint69_linear_104_2761)"/>
<defs>
<linearGradient id="paint0_linear_104_2761" x1="102.832" y1="214.842" x2="99.8725" y2="206.144" gradientUnits="userSpaceOnUse">
<stop stop-color="#EBEFF2"/>
<stop offset="0.47" stop-color="#D2D9E1"/>
<stop offset="0.99" stop-color="#B7C0CE"/>
</linearGradient>
<linearGradient id="paint1_linear_104_2761" x1="119.239" y1="114.564" x2="91.3606" y2="243.103" gradientUnits="userSpaceOnUse">
<stop stop-color="#EBEFF2"/>
<stop offset="0.47" stop-color="#D2D9E1"/>
<stop offset="0.99" stop-color="#B7C0CE"/>
</linearGradient>
<linearGradient id="paint2_linear_104_2761" x1="117.611" y1="195.414" x2="112.489" y2="219.035" gradientUnits="userSpaceOnUse">
<stop stop-color="#EBEFF2"/>
<stop offset="0.47" stop-color="#D2D9E1"/>
<stop offset="0.99" stop-color="#B7C0CE"/>
</linearGradient>
<linearGradient id="paint3_linear_104_2761" x1="116.051" y1="173.651" x2="111.296" y2="159.674" gradientUnits="userSpaceOnUse">
<stop stop-color="#EBEFF2"/>
<stop offset="0.47" stop-color="#D2D9E1"/>
<stop offset="0.99" stop-color="#B7C0CE"/>
</linearGradient>
<linearGradient id="paint4_linear_104_2761" x1="174.752" y1="9.83855" x2="-7.25453" y2="119.148" gradientUnits="userSpaceOnUse">
<stop stop-color="#EBEFF2"/>
<stop offset="0.47" stop-color="#D2D9E1"/>
<stop offset="0.99" stop-color="#B7C0CE"/>
</linearGradient>
<linearGradient id="paint5_linear_104_2761" x1="7.33375" y1="81.9865" x2="213" y2="81.9865" gradientUnits="userSpaceOnUse">
<stop stop-color="#EBEFF2"/>
<stop offset="0.47" stop-color="#D2D9E1"/>
<stop offset="0.99" stop-color="#B7C0CE"/>
</linearGradient>
<linearGradient id="paint6_linear_104_2761" x1="171.138" y1="-119.531" x2="-22.1472" y2="-3.44631" gradientUnits="userSpaceOnUse">
<stop stop-color="#AA80F9"/>
<stop offset="1" stop-color="#6165D7"/>
</linearGradient>
<linearGradient id="paint7_linear_104_2761" x1="188.28" y1="-103.37" x2="-9.57713" y2="15.4606" gradientUnits="userSpaceOnUse">
<stop stop-color="#AA80F9"/>
<stop offset="1" stop-color="#6165D7"/>
</linearGradient>
<linearGradient id="paint8_linear_104_2761" x1="206.128" y1="-87.0711" x2="3.52677" y2="34.6085" gradientUnits="userSpaceOnUse">
<stop stop-color="#AA80F9"/>
<stop offset="1" stop-color="#6165D7"/>
</linearGradient>
<linearGradient id="paint9_linear_104_2761" x1="224.718" y1="-70.6392" x2="17.1967" y2="53.9953" gradientUnits="userSpaceOnUse">
<stop stop-color="#AA80F9"/>
<stop offset="1" stop-color="#6165D7"/>
</linearGradient>
<linearGradient id="paint10_linear_104_2761" x1="244.093" y1="-54.0801" x2="31.4638" y2="73.6225" gradientUnits="userSpaceOnUse">
<stop stop-color="#AA80F9"/>
<stop offset="1" stop-color="#6165D7"/>
</linearGradient>
<linearGradient id="paint11_linear_104_2761" x1="176.573" y1="-100.221" x2="-9.82799" y2="11.7283" gradientUnits="userSpaceOnUse">
<stop stop-color="#AA80F9"/>
<stop offset="1" stop-color="#6165D7"/>
</linearGradient>
<linearGradient id="paint12_linear_104_2761" x1="193.087" y1="-83.722" x2="2.35346" y2="30.8303" gradientUnits="userSpaceOnUse">
<stop stop-color="#AA80F9"/>
<stop offset="1" stop-color="#6165D7"/>
</linearGradient>
<linearGradient id="paint13_linear_104_2761" x1="210.263" y1="-67.0646" x2="15.0403" y2="50.1842" gradientUnits="userSpaceOnUse">
<stop stop-color="#AA80F9"/>
<stop offset="1" stop-color="#6165D7"/>
</linearGradient>
<linearGradient id="paint14_linear_104_2761" x1="228.139" y1="-50.2528" x2="28.2598" y2="69.7919" gradientUnits="userSpaceOnUse">
<stop stop-color="#AA80F9"/>
<stop offset="1" stop-color="#6165D7"/>
</linearGradient>
<linearGradient id="paint15_linear_104_2761" x1="246.751" y1="-33.2913" x2="42.0414" y2="89.6541" gradientUnits="userSpaceOnUse">
<stop stop-color="#AA80F9"/>
<stop offset="1" stop-color="#6165D7"/>
</linearGradient>
<linearGradient id="paint16_linear_104_2761" x1="182.217" y1="-81.8732" x2="2.79491" y2="25.8852" gradientUnits="userSpaceOnUse">
<stop stop-color="#AA80F9"/>
<stop offset="1" stop-color="#6165D7"/>
</linearGradient>
<linearGradient id="paint17_linear_104_2761" x1="198.153" y1="-65.0724" x2="14.5832" y2="45.1764" gradientUnits="userSpaceOnUse">
<stop stop-color="#AA80F9"/>
<stop offset="1" stop-color="#6165D7"/>
</linearGradient>
<linearGradient id="paint18_linear_104_2761" x1="214.677" y1="-48.0563" x2="26.8797" y2="64.733" gradientUnits="userSpaceOnUse">
<stop stop-color="#AA80F9"/>
<stop offset="1" stop-color="#6165D7"/>
</linearGradient>
<linearGradient id="paint19_linear_104_2761" x1="231.879" y1="-30.9191" x2="39.6496" y2="84.5313" gradientUnits="userSpaceOnUse">
<stop stop-color="#AA80F9"/>
<stop offset="1" stop-color="#6165D7"/>
</linearGradient>
<linearGradient id="paint20_linear_104_2761" x1="249.762" y1="-13.5864" x2="52.9639" y2="104.608" gradientUnits="userSpaceOnUse">
<stop stop-color="#AA80F9"/>
<stop offset="1" stop-color="#6165D7"/>
</linearGradient>
<linearGradient id="paint21_linear_104_2761" x1="188.064" y1="-64.4633" x2="15.7144" y2="39.048" gradientUnits="userSpaceOnUse">
<stop stop-color="#AA80F9"/>
<stop offset="1" stop-color="#6165D7"/>
</linearGradient>
<linearGradient id="paint22_linear_104_2761" x1="203.382" y1="-47.3449" x2="27.1437" y2="58.5014" gradientUnits="userSpaceOnUse">
<stop stop-color="#AA80F9"/>
<stop offset="1" stop-color="#6165D7"/>
</linearGradient>
<linearGradient id="paint23_linear_104_2761" x1="219.29" y1="-30.0359" x2="39.0247" y2="78.2285" gradientUnits="userSpaceOnUse">
<stop stop-color="#AA80F9"/>
<stop offset="1" stop-color="#6165D7"/>
</linearGradient>
<linearGradient id="paint24_linear_104_2761" x1="235.916" y1="-12.6346" x2="51.3371" y2="98.2207" gradientUnits="userSpaceOnUse">
<stop stop-color="#AA80F9"/>
<stop offset="1" stop-color="#6165D7"/>
</linearGradient>
<linearGradient id="paint25_linear_104_2761" x1="253.1" y1="5.04205" x2="64.1985" y2="118.494" gradientUnits="userSpaceOnUse">
<stop stop-color="#AA80F9"/>
<stop offset="1" stop-color="#6165D7"/>
</linearGradient>
<linearGradient id="paint26_linear_104_2761" x1="196.021" y1="-49.8653" x2="26.7548" y2="51.7944" gradientUnits="userSpaceOnUse">
<stop stop-color="#AA80F9"/>
<stop offset="1" stop-color="#6165D7"/>
</linearGradient>
<linearGradient id="paint27_linear_104_2761" x1="210.996" y1="-32.6794" x2="38.0153" y2="71.2104" gradientUnits="userSpaceOnUse">
<stop stop-color="#AA80F9"/>
<stop offset="1" stop-color="#6165D7"/>
</linearGradient>
<linearGradient id="paint28_linear_104_2761" x1="226.529" y1="-15.2946" x2="49.7066" y2="90.9022" gradientUnits="userSpaceOnUse">
<stop stop-color="#AA80F9"/>
<stop offset="1" stop-color="#6165D7"/>
</linearGradient>
<linearGradient id="paint29_linear_104_2761" x1="242.303" y1="2.61866" x2="62.0179" y2="110.896" gradientUnits="userSpaceOnUse">
<stop stop-color="#AA80F9"/>
<stop offset="1" stop-color="#6165D7"/>
</linearGradient>
<linearGradient id="paint30_linear_104_2761" x1="259.321" y1="20.1322" x2="74.4915" y2="131.138" gradientUnits="userSpaceOnUse">
<stop stop-color="#AA80F9"/>
<stop offset="1" stop-color="#6165D7"/>
</linearGradient>
<linearGradient id="paint31_linear_104_2761" x1="201.966" y1="-34.1485" x2="39.9125" y2="63.1788" gradientUnits="userSpaceOnUse">
<stop stop-color="#AA80F9"/>
<stop offset="1" stop-color="#6165D7"/>
</linearGradient>
<linearGradient id="paint32_linear_104_2761" x1="216.382" y1="-16.6936" x2="50.8095" y2="82.7463" gradientUnits="userSpaceOnUse">
<stop stop-color="#AA80F9"/>
<stop offset="1" stop-color="#6165D7"/>
</linearGradient>
<linearGradient id="paint33_linear_104_2761" x1="231.326" y1="0.972906" x2="62.1143" y2="102.599" gradientUnits="userSpaceOnUse">
<stop stop-color="#AA80F9"/>
<stop offset="1" stop-color="#6165D7"/>
</linearGradient>
<linearGradient id="paint34_linear_104_2761" x1="246.863" y1="18.844" x2="73.826" y2="122.767" gradientUnits="userSpaceOnUse">
<stop stop-color="#AA80F9"/>
<stop offset="1" stop-color="#6165D7"/>
</linearGradient>
<linearGradient id="paint35_linear_104_2761" x1="262.927" y1="36.9391" x2="86.0106" y2="143.193" gradientUnits="userSpaceOnUse">
<stop stop-color="#AA80F9"/>
<stop offset="1" stop-color="#6165D7"/>
</linearGradient>
<linearGradient id="paint36_linear_104_2761" x1="209.258" y1="-20.101" x2="52.3895" y2="74.1123" gradientUnits="userSpaceOnUse">
<stop stop-color="#AA80F9"/>
<stop offset="1" stop-color="#6165D7"/>
</linearGradient>
<linearGradient id="paint37_linear_104_2761" x1="223.25" y1="-2.49925" x2="63.0323" y2="93.7246" gradientUnits="userSpaceOnUse">
<stop stop-color="#AA80F9"/>
<stop offset="1" stop-color="#6165D7"/>
</linearGradient>
<linearGradient id="paint38_linear_104_2761" x1="237.74" y1="15.3244" x2="74.0618" y2="113.628" gradientUnits="userSpaceOnUse">
<stop stop-color="#AA80F9"/>
<stop offset="1" stop-color="#6165D7"/>
</linearGradient>
<linearGradient id="paint39_linear_104_2761" x1="252.768" y1="33.3311" x2="85.4755" y2="133.805" gradientUnits="userSpaceOnUse">
<stop stop-color="#AA80F9"/>
<stop offset="1" stop-color="#6165D7"/>
</linearGradient>
<linearGradient id="paint40_linear_104_2761" x1="268.333" y1="51.5993" x2="97.338" y2="154.296" gradientUnits="userSpaceOnUse">
<stop stop-color="#AA80F9"/>
<stop offset="1" stop-color="#6165D7"/>
</linearGradient>
<linearGradient id="paint41_linear_104_2761" x1="216.424" y1="-6.78637" x2="64.7926" y2="84.2812" gradientUnits="userSpaceOnUse">
<stop stop-color="#AA80F9"/>
<stop offset="1" stop-color="#6165D7"/>
</linearGradient>
<linearGradient id="paint42_linear_104_2761" x1="230" y1="10.9512" x2="75.182" y2="103.933" gradientUnits="userSpaceOnUse">
<stop stop-color="#AA80F9"/>
<stop offset="1" stop-color="#6165D7"/>
</linearGradient>
<linearGradient id="paint43_linear_104_2761" x1="244.049" y1="28.9193" x2="85.94" y2="123.877" gradientUnits="userSpaceOnUse">
<stop stop-color="#AA80F9"/>
<stop offset="1" stop-color="#6165D7"/>
</linearGradient>
<linearGradient id="paint44_linear_104_2761" x1="258.587" y1="47.0744" x2="97.0582" y2="144.086" gradientUnits="userSpaceOnUse">
<stop stop-color="#AA80F9"/>
<stop offset="1" stop-color="#6165D7"/>
</linearGradient>
<linearGradient id="paint45_linear_104_2761" x1="273.685" y1="65.501" x2="108.596" y2="164.651" gradientUnits="userSpaceOnUse">
<stop stop-color="#AA80F9"/>
<stop offset="1" stop-color="#6165D7"/>
</linearGradient>
<linearGradient id="paint46_linear_104_2761" x1="34.0753" y1="11.9143" x2="12.8699" y2="24.6497" gradientUnits="userSpaceOnUse">
<stop stop-color="#AA80F9"/>
<stop offset="1" stop-color="#6165D7"/>
</linearGradient>
<linearGradient id="paint47_linear_104_2761" x1="38.6595" y1="40.1186" x2="15.8313" y2="53.8292" gradientUnits="userSpaceOnUse">
<stop stop-color="#AA80F9"/>
<stop offset="1" stop-color="#6165D7"/>
</linearGradient>
<linearGradient id="paint48_linear_104_2761" x1="42.3904" y1="69.9562" x2="19.0153" y2="83.9947" gradientUnits="userSpaceOnUse">
<stop stop-color="#AA80F9"/>
<stop offset="1" stop-color="#6165D7"/>
</linearGradient>
<linearGradient id="paint49_linear_104_2761" x1="46.2182" y1="100.545" x2="22.2754" y2="114.925" gradientUnits="userSpaceOnUse">
<stop stop-color="#AA80F9"/>
<stop offset="1" stop-color="#6165D7"/>
</linearGradient>
<linearGradient id="paint50_linear_104_2761" x1="50.1485" y1="131.915" x2="25.6163" y2="146.65" gradientUnits="userSpaceOnUse">
<stop stop-color="#AA80F9"/>
<stop offset="1" stop-color="#6165D7"/>
</linearGradient>
<linearGradient id="paint51_linear_104_2761" x1="49.7253" y1="23.5408" x2="39.3418" y2="29.777" gradientUnits="userSpaceOnUse">
<stop stop-color="#AA80F9"/>
<stop offset="1" stop-color="#6165D7"/>
</linearGradient>
<linearGradient id="paint52_linear_104_2761" x1="61.9489" y1="42.0336" x2="40.4407" y2="54.9517" gradientUnits="userSpaceOnUse">
<stop stop-color="#AA80F9"/>
<stop offset="1" stop-color="#6165D7"/>
</linearGradient>
<linearGradient id="paint53_linear_104_2761" x1="66.3356" y1="70.9654" x2="43.8112" y2="84.4934" gradientUnits="userSpaceOnUse">
<stop stop-color="#AA80F9"/>
<stop offset="1" stop-color="#6165D7"/>
</linearGradient>
<linearGradient id="paint54_linear_104_2761" x1="70.3897" y1="101.031" x2="47.3284" y2="114.882" gradientUnits="userSpaceOnUse">
<stop stop-color="#AA80F9"/>
<stop offset="1" stop-color="#6165D7"/>
</linearGradient>
<linearGradient id="paint55_linear_104_2761" x1="74.5495" y1="131.852" x2="50.9311" y2="146.037" gradientUnits="userSpaceOnUse">
<stop stop-color="#AA80F9"/>
<stop offset="1" stop-color="#6165D7"/>
</linearGradient>
<linearGradient id="paint56_linear_104_2761" x1="71.0272" y1="55.9886" x2="66.0952" y2="58.9509" gradientUnits="userSpaceOnUse">
<stop stop-color="#AA80F9"/>
<stop offset="1" stop-color="#6165D7"/>
</linearGradient>
<linearGradient id="paint57_linear_104_2761" x1="83.2637" y1="77.9895" x2="68.8802" y2="86.6277" gradientUnits="userSpaceOnUse">
<stop stop-color="#AA80F9"/>
<stop offset="1" stop-color="#6165D7"/>
</linearGradient>
<linearGradient id="paint58_linear_104_2761" x1="93.8022" y1="101.499" x2="71.6238" y2="114.82" gradientUnits="userSpaceOnUse">
<stop stop-color="#AA80F9"/>
<stop offset="1" stop-color="#6165D7"/>
</linearGradient>
<linearGradient id="paint59_linear_104_2761" x1="98.174" y1="131.788" x2="75.4691" y2="145.425" gradientUnits="userSpaceOnUse">
<stop stop-color="#AA80F9"/>
<stop offset="1" stop-color="#6165D7"/>
</linearGradient>
<linearGradient id="paint60_linear_104_2761" x1="115.693" y1="102.648" x2="95.2397" y2="114.933" gradientUnits="userSpaceOnUse">
<stop stop-color="#AA80F9"/>
<stop offset="1" stop-color="#6165D7"/>
</linearGradient>
<linearGradient id="paint61_linear_104_2761" x1="120.993" y1="131.735" x2="99.1987" y2="144.824" gradientUnits="userSpaceOnUse">
<stop stop-color="#AA80F9"/>
<stop offset="1" stop-color="#6165D7"/>
</linearGradient>
<linearGradient id="paint62_linear_104_2761" x1="138.946" y1="103.539" x2="118.284" y2="115.949" gradientUnits="userSpaceOnUse">
<stop stop-color="#AA80F9"/>
<stop offset="1" stop-color="#6165D7"/>
</linearGradient>
<linearGradient id="paint63_linear_104_2761" x1="143.172" y1="131.522" x2="121.847" y2="144.328" gradientUnits="userSpaceOnUse">
<stop stop-color="#AA80F9"/>
<stop offset="1" stop-color="#6165D7"/>
</linearGradient>
<linearGradient id="paint64_linear_104_2761" x1="159.493" y1="102.902" x2="139.529" y2="114.893" gradientUnits="userSpaceOnUse">
<stop stop-color="#AA80F9"/>
<stop offset="1" stop-color="#6165D7"/>
</linearGradient>
<linearGradient id="paint65_linear_104_2761" x1="164.299" y1="131.525" x2="143.887" y2="143.784" gradientUnits="userSpaceOnUse">
<stop stop-color="#AA80F9"/>
<stop offset="1" stop-color="#6165D7"/>
</linearGradient>
<linearGradient id="paint66_linear_104_2761" x1="180.066" y1="103.054" x2="160.764" y2="114.647" gradientUnits="userSpaceOnUse">
<stop stop-color="#AA80F9"/>
<stop offset="1" stop-color="#6165D7"/>
</linearGradient>
<linearGradient id="paint67_linear_104_2761" x1="185.134" y1="131.388" x2="165.406" y2="143.237" gradientUnits="userSpaceOnUse">
<stop stop-color="#AA80F9"/>
<stop offset="1" stop-color="#6165D7"/>
</linearGradient>
<linearGradient id="paint68_linear_104_2761" x1="195.496" y1="107.936" x2="182.056" y2="116.008" gradientUnits="userSpaceOnUse">
<stop stop-color="#AA80F9"/>
<stop offset="1" stop-color="#6165D7"/>
</linearGradient>
<linearGradient id="paint69_linear_104_2761" x1="205.069" y1="131.303" x2="186.022" y2="142.744" gradientUnits="userSpaceOnUse">
<stop stop-color="#AA80F9"/>
<stop offset="1" stop-color="#6165D7"/>
</linearGradient>
</defs>
</svg>
