<svg width="30" height="30" viewBox="0 0 30 30" fill="none" xmlns="http://www.w3.org/2000/svg">
<path d="M4.03893 0C2.44846 0 1.1543 1.29416 1.1543 2.88463C1.1543 4.4751 2.4484 5.76926 4.03893 5.76926C5.62939 5.76926 6.92355 4.47516 6.92355 2.88463C6.92355 1.29416 5.62939 0 4.03893 0ZM4.03893 4.61537C3.08455 4.61537 2.30818 3.839 2.30818 2.88463C2.30818 1.93025 3.08455 1.15389 4.03893 1.15389C4.99336 1.15389 5.76973 1.93025 5.76973 2.88463C5.76973 3.839 4.99336 4.61537 4.03893 4.61537Z" fill="#181B56"/>
<path d="M24.2306 20.7693C21.6857 20.7693 19.6152 22.8398 19.6152 25.3847C19.6152 27.9296 21.6857 30 24.2306 30C26.7755 30 28.846 27.9296 28.846 25.3847C28.846 22.8398 26.7755 20.7693 24.2306 20.7693ZM24.2306 28.8462C22.3218 28.8462 20.7691 27.2935 20.7691 25.3847C20.7691 23.4758 22.3218 21.9231 24.2306 21.9231C26.1394 21.9231 27.6921 23.4758 27.6921 25.3847C27.6921 27.2935 26.1395 28.8462 24.2306 28.8462Z" fill="#181B56"/>
<path d="M16.7306 1.73071C11.3225 1.73071 6.92285 6.13034 6.92285 11.5384C6.92285 16.9465 11.3225 21.3461 16.7306 21.3461C22.1387 21.3461 26.5383 16.9466 26.5383 11.5384C26.5383 6.13028 22.1387 1.73071 16.7306 1.73071ZM16.7306 20.1923C11.9586 20.1923 8.07674 16.3104 8.07674 11.5384C8.07674 6.76644 11.9586 2.8846 16.7306 2.8846C21.5026 2.8846 25.3844 6.76644 25.3844 11.5384C25.3845 16.3105 21.5026 20.1923 16.7306 20.1923Z" fill="#181B56"/>
<path d="M16.7309 5.19238C13.2317 5.19238 10.3848 8.03928 10.3848 11.5386C10.3848 11.8574 10.6428 12.1155 10.9617 12.1155C11.2805 12.1155 11.5386 11.8574 11.5386 11.5386C11.5386 8.67537 13.8677 6.34627 16.7309 6.34627C17.0497 6.34627 17.3078 6.08822 17.3078 5.76936C17.3079 5.45043 17.0499 5.19238 16.7309 5.19238Z" fill="#181B56"/>
<path d="M13.9232 22.1558C13.6432 22.002 13.2928 22.1052 13.1401 22.3846C12.126 24.2348 10.1856 25.3847 8.07738 25.3847C4.89639 25.3847 2.30812 22.7964 2.30812 19.6155C2.30812 17.3111 3.67547 15.2305 5.79217 14.3161C6.08461 14.1899 6.21926 13.8502 6.09305 13.5578C5.96684 13.2648 5.626 13.1313 5.33473 13.2569C2.79492 14.3544 1.1543 16.8503 1.1543 19.6155C1.1543 23.4331 4.25976 26.5385 8.07738 26.5385C10.607 26.5385 12.935 25.1594 14.152 22.9389C14.3053 22.6595 14.2027 22.3091 13.9232 22.1558Z" fill="#181B56"/>
<path d="M8.07729 23.077C6.16848 23.077 4.61574 21.5243 4.61574 19.6155C4.61574 19.2966 4.3577 19.0386 4.03883 19.0386C3.71996 19.0386 3.46191 19.2966 3.46191 19.6155C3.46191 22.1604 5.53238 24.2309 8.07729 24.2309C8.39615 24.2309 8.6542 23.9728 8.6542 23.6539C8.6542 23.3351 8.39615 23.077 8.07729 23.077Z" fill="#181B56"/>
</svg>
