<svg width="36" height="36" viewBox="0 0 36 36" fill="none" xmlns="http://www.w3.org/2000/svg">
<path d="M27.585 14.25L25.83 30.165C25.7892 30.5336 25.6133 30.874 25.3363 31.1205C25.0593 31.3671 24.7008 31.5022 24.33 31.5H11.67C11.2992 31.5022 10.9407 31.3671 10.6637 31.1205C10.3867 30.874 10.2108 30.5336 10.17 30.165L8.25 12.75C17.7 12.825 18.225 14.16 27.585 14.25Z" fill="white"/>
<path d="M8.25 12.75C17.7 12.825 18.225 14.16 27.585 14.25" stroke="white" stroke-width="2" stroke-linecap="round" stroke-linejoin="round"/>
<path d="M27.0003 4.50003C27.212 4.49874 27.4215 4.54227 27.6152 4.62775C27.8088 4.71323 27.9822 4.83873 28.1239 4.996C28.2655 5.15326 28.3723 5.33873 28.4372 5.54022C28.5021 5.7417 28.5236 5.95464 28.5003 6.16503L25.8453 30.165C25.8045 30.5336 25.6287 30.874 25.3517 31.1206C25.0746 31.3671 24.7161 31.5023 24.3453 31.5H11.6703C11.2995 31.5023 10.941 31.3671 10.664 31.1206C10.387 30.874 10.2111 30.5336 10.1703 30.165L7.50032 6.16503C7.47703 5.95464 7.49853 5.7417 7.56342 5.54022C7.6283 5.33873 7.73509 5.15326 7.87677 4.996C8.01845 4.83873 8.19181 4.71323 8.38546 4.62775C8.5791 4.54227 8.78865 4.49874 9.00032 4.50003H27.0003Z" stroke="white" stroke-width="2" stroke-linecap="round" stroke-linejoin="round"/>
</svg>
